# xmcd
#
# Track frame offsets:
# 150
# 14217
# 26171
# 43778
# 56683
# 70507
# 85351
# 94932
# 107464
# 128169
# 141352
# 156933
# 169887
# 181672
# 197033
#
# Disc length: 2803 seconds
#
#
# Revision: 0
# Processed by: cddbd v1.5.2PL0 Copyright (c) Steve Scherf et al.
# Submitted via: FreeRIP 2.70 
#
DISCID=d20af10f
DTITLE=Max Bygraves - The Essential Max Bygraves 2
DYEAR=2009
DGENRE=Easy Listening
TTITLE0=Cowpunchers Cantata
TTITLE1=Harmonize Medley
TTITLE2=Back In My Young Man's Days
TTITLE3=Is It True What They Say About Dixie
TTITLE4=Let The Rest of The World Go By
TTITLE5=What'll Do
TTITLE6=I Don't Want To Set The World On Fire
TTITLE7=Yesterday
TTITLE8=Those Were The Days
TTITLE9=Everybody Loves My Baby
TTITLE10=How Wonderful To Know
TTITLE11=Somewhere My Love
TTITLE12=I Like Beer
TTITLE13=The Last Waltz
TTITLE14=Any Dream Will Do
EXTD=
EXTT0=
EXTT1=
EXTT2=
EXTT3=
EXTT4=
EXTT5=
EXTT6=
EXTT7=
EXTT8=
EXTT9=
EXTT10=
EXTT11=
EXTT12=
EXTT13=
EXTT14=
PLAYORDER=
